<?xml version="1.0" encoding="utf-8"?>
<!-- Generator: Adobe Illustrator 17.1.0, SVG Export Plug-In . SVG Version: 6.00 Build 0)  -->
<!DOCTYPE svg PUBLIC "-//W3C//DTD SVG 1.1//EN" "http://www.w3.org/Graphics/SVG/1.1/DTD/svg11.dtd">
<svg version="1.1" id="Layer_1" xmlns="http://www.w3.org/2000/svg" xmlns:xlink="http://www.w3.org/1999/xlink" x="0px" y="0px"
	 width="24px" height="24px" viewBox="0 0 24 24" style="enable-background:new 0 0 24 24;" xml:space="preserve">
<path d="M16.2,8.7c-0.4-0.9-0.9-1.9-1.2-2.8c-0.3-1.1-0.4-1.7-0.1-1.9c0.1-0.1,0.5,1.3,0.9,1.2c0.5-0.3-0.1-1.8,0.2-2.3
	c0.5-0.7,0.9,2.2,2.4,3.3c0.5,0.4,1,0.1,0.7,0c-1.4-0.7-0.4-6.1-3.9-6.1c-2,0-3.3,0.5-5.9,5.6C6.5,11.1,2.8,19,2.8,20.3
	c0,2,4.1,3.7,9.2,3.7c5.1,0,9.2-1.7,9.2-3.7C21.2,19.1,18.7,14.1,16.2,8.7z M8.2,18.9L7,18.2l-1.2,0.6l0.2-1.3l-1-0.9l1.3-0.2
	L7,15.2l0.6,1.2L9,16.6l-1,0.9L8.2,18.9z M8.8,14.6l0.2-1.4l-1-1L9.4,12l0.6-1.3l0.6,1.3l1.4,0.2l-1,1l0.2,1.4l-1.3-0.7L8.8,14.6z
	 M15.3,22c-2.2,0.2-4.1-1.5-4.3-3.7c-0.2-2.2,1.5-4.1,3.7-4.3c0.6,0,1.1,0,1.6,0.2c-0.1,0-0.1,0-0.2,0c-2.1,0.5-2.8,1.7-2.8,3.7
	c0,2,1,3.3,3.4,3.7c0.1,0,0.1,0,0.2,0C16.4,21.8,15.9,21.9,15.3,22z"/>
</svg>
