<?xml version="1.0" encoding="utf-8"?>
<!-- Generator: Adobe Illustrator 17.0.0, SVG Export Plug-In . SVG Version: 6.00 Build 0)  -->
<!DOCTYPE svg PUBLIC "-//W3C//DTD SVG 1.1//EN" "http://www.w3.org/Graphics/SVG/1.1/DTD/svg11.dtd">
<svg version="1.1" id="Layer_1" xmlns="http://www.w3.org/2000/svg" xmlns:xlink="http://www.w3.org/1999/xlink" x="0px" y="0px"
	 width="50px" height="50px" viewBox="0 0 50 50" enable-background="new 0 0 50 50" xml:space="preserve">
<path fill="none" stroke="#000000" stroke-width="2" stroke-linecap="round" stroke-linejoin="round" stroke-miterlimit="10" d="
	M44,21c0,13.255-8.507,28-19,28S6,34.255,6,21S14.507,1,25,1S44,7.745,44,21z"/>
<path fill="none" stroke="#000000" stroke-width="2" stroke-linecap="round" stroke-linejoin="round" stroke-miterlimit="10" d="
	M7.001,29.133c0,0,7.629,1.871,17.999,1.871c6.872,0,12.725-0.388,17.816-1.147 M43.95,18.869c0,0-5.39-1.864-18.95-1.864
	s-18.865,1.3-18.865,1.3"/>
<path fill="none" stroke="#000000" stroke-width="2" stroke-linecap="round" stroke-linejoin="round" stroke-miterlimit="10" d="
	M8.391,10.303c0,0,18.418-1.199,35.558,8.565"/>
<path fill="none" stroke="#000000" stroke-width="2" stroke-linecap="round" stroke-linejoin="round" stroke-miterlimit="10" d="
	M11.324,29.949c0,0,11.738,5.159,28.664,7.323"/>
<path fill="none" stroke="#000000" stroke-width="2" stroke-linecap="round" stroke-linejoin="round" stroke-miterlimit="10" d="
	M8.385,33.611c0,0,7.165,8.283,26.673,10.614"/>
<path fill="none" stroke="#000000" stroke-width="2" stroke-linecap="round" stroke-linejoin="round" stroke-miterlimit="10" d="
	M26.171,11.613c0,0,6.065-2.656,15.025-2.054"/>
<path fill="none" stroke="#000000" stroke-width="2" stroke-linecap="round" stroke-linejoin="round" stroke-miterlimit="10" d="
	M15.579,10.257c0,0,6-4.742,18.855-7.096"/>
<path d="M32.6,27.004c-2.099,0-3.563-1.755-3.8-3c0,0,6.187-1.904,9.5-3C38.3,23.213,36.135,27.004,32.6,27.004z"/>
<path d="M11.7,21.004c3.313,1.096,9.5,3,9.5,3c-0.237,1.245-1.701,3-3.8,3C13.865,27.004,11.7,23.213,11.7,21.004z"/>
</svg>
